<?xml version="1.0" standalone="no"?>
<!DOCTYPE svg PUBLIC "-//W3C//DTD SVG 20010904//EN"
 "http://www.w3.org/TR/2001/REC-SVG-20010904/DTD/svg10.dtd">
<svg version="1.0" xmlns="http://www.w3.org/2000/svg"
 width="128.000000pt" height="128.000000pt" viewBox="0 0 128.000000 128.000000"
 preserveAspectRatio="xMidYMid meet">
<metadata>
Created by potrace 1.11, written by Peter Selinger 2001-2013
</metadata>
<g transform="translate(0.000000,128.000000) scale(0.100000,-0.100000)"
fill="#000000" stroke="none">
<path d="M962 1269 c-40 -8 -38 -7 -224 -192 -142 -142 -174 -187 -131 -187
10 0 92 74 183 165 145 144 170 165 198 165 18 0 32 -3 32 -6 0 -3 -173 -179
-385 -391 -233 -233 -385 -393 -385 -404 0 -11 -7 -19 -17 -19 -45 -1 -103
-40 -136 -92 -47 -73 -86 -240 -64 -275 13 -21 161 5 244 44 63 29 100 70 115
129 9 31 17 44 29 44 20 0 859 835 859 854 0 15 -162 176 -176 176 -7 0 -17
-7 -24 -15 -7 -8 -16 -12 -21 -9 -23 14 -67 20 -97 13z m198 -111 c27 -28 50
-54 50 -57 0 -4 -58 -64 -128 -134 l-129 -128 -57 57 -57 57 128 129 c70 70
131 128 135 128 4 0 30 -23 58 -52z m-300 -303 l55 -55 -245 -245 -245 -245
-57 57 -58 58 242 242 c134 134 245 243 248 243 3 0 30 -25 60 -55z m-534
-563 c47 -69 -3 -147 -119 -186 -80 -27 -85 -21 -29 36 54 54 63 74 36 85 -10
4 -34 -12 -70 -48 l-55 -54 7 40 c25 160 158 233 230 127z"/>
</g>
</svg>
